<?xml version="1.0" standalone="no"?>
<!DOCTYPE svg PUBLIC "-//W3C//DTD SVG 20010904//EN"
 "http://www.w3.org/TR/2001/REC-SVG-20010904/DTD/svg10.dtd">
<svg version="1.0" xmlns="http://www.w3.org/2000/svg"
 width="1457.000000pt" height="1457.000000pt" viewBox="0 0 1457.000000 1457.000000"
 preserveAspectRatio="xMidYMid meet">
<metadata>
Created by potrace 1.14, written by Peter Selinger 2001-2017
</metadata>
<g transform="translate(0.000000,1457.000000) scale(0.100000,-0.100000)"
fill="#000000" stroke="none">
<path d="M0 10150 c0 -2940 3 -4420 10 -4420 7 0 10 -651 10 -1932 l0 -1933
73 -70 c87 -85 147 -118 185 -104 13 5 60 43 103 83 89 84 135 109 199 110
l45 1 0 -95 0 -95 35 -10 c54 -15 169 -135 210 -218 36 -73 36 -73 31 -337 -3
-185 56 -286 330 -565 134 -137 194 -205 214 -245 46 -92 137 -197 259 -298
41 -33 74 -28 121 19 51 51 123 89 185 96 61 7 122 -13 207 -68 34 -23 69 -39
77 -36 9 4 26 24 40 45 23 37 82 72 120 72 24 0 64 40 71 70 4 17 14 34 23 39
9 5 91 14 182 21 287 20 274 15 339 139 l42 80 -36 15 c-22 9 -35 22 -35 33 0
10 32 59 71 108 129 163 219 308 284 458 30 68 47 92 101 142 63 58 65 62 84
142 22 95 59 190 90 233 42 59 103 35 237 -91 34 -33 66 -59 72 -59 20 0 81
96 177 283 l98 187 45 0 c90 1 243 83 346 186 127 127 147 161 209 357 31 97
61 177 67 177 5 0 51 -33 102 -73 190 -152 328 -229 370 -206 9 5 19 26 23 47
25 140 129 173 243 77 l33 -28 -7 -75 -7 -74 44 -41 c28 -27 69 -52 116 -71
41 -15 93 -46 118 -67 46 -40 56 -43 202 -54 88 -6 112 -17 112 -51 0 -40 -33
-93 -122 -193 -199 -224 -228 -259 -256 -306 -42 -71 -46 -88 -23 -116 19 -23
24 -24 163 -24 l143 0 6 -63 c5 -51 12 -69 34 -92 16 -17 34 -30 40 -30 27 0
238 -115 314 -170 46 -34 106 -76 133 -92 26 -16 48 -37 48 -46 0 -31 50 -647
56 -680 l5 -33 112 3 112 3 0 122 0 121 45 91 c24 50 50 91 57 91 7 0 20 -11
28 -24 14 -21 13 -49 -10 -310 -14 -157 -25 -291 -25 -296 0 -6 49 -10 124
-10 l123 0 141 317 c316 711 511 1197 537 1336 9 49 -13 96 -147 300 -179 273
-328 587 -328 691 0 40 15 56 53 56 65 0 141 -63 333 -278 146 -164 165 -189
184 -247 24 -72 48 -95 96 -95 45 0 79 44 94 117 50 257 68 290 240 461 252
250 317 394 451 992 61 275 99 339 234 401 103 46 431 141 1033 299 241 64
281 77 408 139 142 69 286 155 317 189 39 42 -33 65 -163 51 -97 -10 -262 -60
-360 -109 -73 -37 -337 -114 -441 -129 -88 -12 -228 -17 -441 -13 -184 2 -188
4 -188 87 l0 54 42 12 c24 6 270 76 549 154 428 122 547 151 780 195 324 61
597 118 621 131 37 20 42 50 43 227 1 157 3 175 22 200 11 15 30 28 42 30 53
8 74 -49 86 -235 8 -114 27 -166 63 -171 12 -2 81 24 155 58 239 112 317 116
577 32 191 -62 227 -68 273 -49 83 35 146 123 182 252 22 80 32 328 16 400
-18 79 -90 140 -188 158 -45 9 -51 -9 -15 -46 45 -48 65 -95 69 -167 4 -54 0
-73 -19 -109 -34 -65 -80 -86 -188 -86 -131 0 -158 17 -257 164 -96 141 -118
197 -118 306 0 97 27 164 109 264 148 182 136 265 -71 524 -154 193 -195 281
-171 375 10 42 32 68 193 232 100 102 224 239 277 305 116 147 233 259 313
302 33 17 110 46 170 64 61 17 139 45 175 62 36 16 137 46 226 67 160 38 361
108 389 136 22 22 33 75 45 223 11 139 27 197 56 208 22 8 46 -21 96 -122 51
-101 75 -135 96 -135 9 0 125 57 259 127 l243 127 0 2868 0 2868 -7285 0
-7285 0 0 -4420z"/>
</g>
</svg>
