<?xml version="1.0" encoding="UTF-8" standalone="no"?>
<svg
   xmlns:dc="http://purl.org/dc/elements/1.1/"
   xmlns:cc="http://creativecommons.org/ns#"
   xmlns:rdf="http://www.w3.org/1999/02/22-rdf-syntax-ns#"
   xmlns:svg="http://www.w3.org/2000/svg"
   xmlns="http://www.w3.org/2000/svg"
   xmlns:sodipodi="http://sodipodi.sourceforge.net/DTD/sodipodi-0.dtd"
   xmlns:inkscape="http://www.inkscape.org/namespaces/inkscape"
   width="513.99725mm"
   height="513.99725mm"
   viewBox="0 0 513.99725 513.99725"
   version="1.1"
   id="svg8"
   inkscape:version="1.0.1 (c497b03c, 2020-09-10)"
   sodipodi:docname="logo5_with_text.svg">
  <defs
     id="defs2" />
  <sodipodi:namedview
     id="base"
     pagecolor="#ffffff"
     bordercolor="#666666"
     borderopacity="1.0"
     inkscape:pageopacity="0.0"
     inkscape:pageshadow="2"
     inkscape:zoom="0.24748737"
     inkscape:cx="1523.4797"
     inkscape:cy="954.85323"
     inkscape:document-units="mm"
     inkscape:current-layer="layer1"
     inkscape:document-rotation="0"
     showgrid="false"
     fit-margin-top="0"
     fit-margin-left="0"
     fit-margin-right="0"
     fit-margin-bottom="0"
     inkscape:snap-global="false"
     inkscape:window-width="1440"
     inkscape:window-height="847"
     inkscape:window-x="0"
     inkscape:window-y="25"
     inkscape:window-maximized="0" />
  <metadata
     id="metadata5">
    <rdf:RDF>
      <cc:Work
         rdf:about="">
        <dc:format>image/svg+xml</dc:format>
        <dc:type
           rdf:resource="http://purl.org/dc/dcmitype/StillImage" />
        <dc:title></dc:title>
      </cc:Work>
    </rdf:RDF>
  </metadata>
  <g
     inkscape:label="Layer 1"
     inkscape:groupmode="layer"
     id="layer1"
     transform="translate(264.55814,272.87363)">
    <path
       style="fill:#fcaf21;stroke-width:0.352778;fill-opacity:1"
       d="m -204.23314,240.55526 c -0.29104,-0.28025 -1.52111,-1.39513 -2.7335,-2.47756 -2.71704,-2.42573 -5.32656,-5.67662 -6.61676,-8.24297 -0.70411,-1.40056 -2.80597,-3.80474 -7.55621,-8.64306 -9.66962,-9.84888 -11.75309,-13.41487 -11.63657,-19.9166 0.16702,-9.31961 0.16564,-9.33471 -1.09431,-11.9084 -1.42923,-2.91945 -5.51618,-7.16622 -7.40432,-7.69383 l -1.23472,-0.34506 v -3.35139 -3.35138 l -1.5875,0.0226 c -2.24706,0.0321 -3.88732,0.94171 -7.0329,3.90084 -1.5099,1.42043 -3.14628,2.73502 -3.63641,2.92139 -1.31735,0.50084 -3.42755,-0.68425 -6.50345,-3.65238 l -2.58279,-2.49227 v -68.1422 c 0,-37.478231 -0.11907,-68.195137 -0.26459,-68.259815 -0.14552,-0.06468 -0.22454,-70.245408 -0.1756,-155.957185 l 0.089,-155.83959 H -7.7351137 248.73355 v 26.57593 c 0,14.61676 0.0962,26.67217 0.21389,26.7898 0.11762,0.11763 0.28018,33.68348 0.36125,74.59076 l 0.14735,74.376869 -8.58135,4.490269 c -4.71975,2.469649 -8.84026,4.490272 -9.15667,4.490272 -0.72771,0 -1.57713,-1.203445 -3.36148,-4.7625 -1.78487,-3.560099 -2.60692,-4.600102 -3.39647,-4.297123 -1.02768,0.39436 -1.58044,2.436806 -1.98505,7.334699 -0.42985,5.203504 -0.80828,7.074662 -1.58852,7.854911 -0.98901,0.988999 -8.07847,3.468254 -13.72013,4.798053 -3.12173,0.735824 -6.70775,1.810565 -7.96893,2.388313 -1.26118,0.577744 -4.03931,1.560502 -6.17361,2.183903 -2.13431,0.623401 -4.83306,1.637436 -5.99722,2.253407 -2.81863,1.491364 -6.94902,5.470546 -11.04946,10.64495 -1.84507,2.328333 -6.2393,7.170209 -9.76496,10.759723 -5.68004,5.782952 -6.45672,6.713767 -6.81817,8.171321 -0.82466,3.325506 0.59937,6.4510115 6.03137,13.23781075 7.32747,9.15506715 7.72509,12.07834225 2.51421,18.48603325 -2.88311,3.545332 -3.84408,5.8781 -3.83808,9.317337 0.007,3.843709 0.76133,5.812692 4.14284,10.809458 3.496,5.165926 4.44821,5.771099 9.08086,5.771099 3.81585,0 5.4501,-0.743024 6.64026,-3.019051 0.67942,-1.29927 0.794,-1.959395 0.67056,-3.862928 -0.1646,-2.538892 -0.85421,-4.192062 -2.4511,-5.875733 -1.25253,-1.320645 -1.05043,-1.94419 0.53383,-1.646798 1.90828,0.358228 3.28369,1.048716 4.77784,2.398589 1.12088,1.012645 1.52122,1.699884 1.85247,3.180197 0.5672,2.534405 0.2146,11.284716 -0.56881,14.117391 -1.26249,4.564825 -3.49857,7.655052 -6.42352,8.877166 -1.62656,0.679627 -2.87066,0.456862 -9.61764,-1.722099 -9.15882,-2.957862 -11.90961,-2.805102 -20.36664,1.131009 -2.58322,1.202281 -5.02384,2.12107 -5.46721,2.058145 -1.2711,-0.180397 -1.93368,-2.003662 -2.19435,-6.0383 -0.42347,-6.553723 -1.16551,-8.580442 -3.03996,-8.303021 -0.4331,0.0641 -1.11044,0.550754 -1.50519,1.081455 -0.65303,0.877926 -0.72094,1.513942 -0.7535,7.055556 -0.0367,6.242921 -0.23827,7.303491 -1.51804,7.987715 -0.85023,0.454564 -10.47034,2.48564 -21.93435,4.630956 -8.19905,1.534326 -12.41707,2.586708 -27.516666,6.865342 -9.808302,2.779282 -18.507958,5.234809 -19.332576,5.456728 l -1.499306,0.403489 v 1.901476 c 0,2.929432 0.142209,2.995684 6.639783,3.093403 7.495029,0.112748 12.429639,-0.03986 15.536394,-0.480589 3.699193,-0.524722 12.980781,-3.233914 15.587631,-4.549864 3.42335,-1.728089 9.2475,-3.498165 12.67802,-3.853081 4.60805,-0.476744 7.1156,0.320058 5.75134,1.827562 -1.07291,1.185548 -6.17993,4.226976 -11.16415,6.648725 -4.49668,2.184859 -5.91855,2.667847 -14.415525,4.896627 -21.23971,5.571208 -32.791119,8.923867 -36.44503,10.57776 -4.767171,2.157798 -6.094938,4.429368 -8.25935,14.130228 -4.70692,21.09636 -7.014499,26.17555 -15.892407,34.98067 -6.084517,6.03466 -6.696897,7.20987 -8.474745,16.26384 -0.510149,2.59799 -1.739703,4.14161 -3.298995,4.14161 -1.718522,0 -2.558383,-0.82677 -3.39562,-3.34268 -0.682826,-2.05189 -1.346232,-2.94156 -6.510659,-8.73142 -6.7573882,-7.5757 -9.4209241,-9.79813 -11.7429428,-9.79813 -1.3172759,0 -1.8576362,0.57962 -1.8576362,1.99263 0,3.64586 5.265886,14.73183 11.576724,24.37176 4.705252,7.18736 5.515346,8.83861 5.189185,10.57717 -0.920192,4.90505 -7.808475,22.03093 -18.94744103,47.10775 l -4.97527817,11.2007 h -4.3590953 c -2.6147785,0 -4.3590955,-0.1385 -4.3590955,-0.34611 0,-0.19032 0.402438,-4.89285 0.894306,-10.44998 0.815813,-9.21706 0.846063,-10.17754 0.344646,-10.94278 -0.302313,-0.4614 -0.751469,-0.83891 -0.998125,-0.83891 -0.246655,0 -1.15516,1.44177 -2.018901,3.20393 l -1.570436,3.20396 -0.0014,4.29257 -0.0014,4.2926 -3.950628,0.0996 -3.950632,0.0996 -0.186849,-1.15789 c -0.188369,-1.1673 -1.970592,-22.87852 -1.967643,-23.97001 7.06e-4,-0.32294 -0.765732,-1.05925 -1.70362,-1.63633 -0.937863,-0.57707 -3.041301,-2.03214 -4.674306,-3.23345 -2.676606,-1.96903 -10.136255,-6.00841 -11.095955,-6.00841 -0.211339,0 -0.834401,-0.46986 -1.384575,-1.04412 -0.806814,-0.84211 -1.041372,-1.47337 -1.212529,-3.26319 l -0.21221,-2.21908 h -5.05556 c -4.903806,0 -5.076134,-0.0254 -5.74081,-0.84293 -0.802608,-0.98728 -0.683256,-1.60083 0.796777,-4.09596 0.990117,-1.6692 2.019519,-2.89778 9.05642,-10.80883 3.119981,-3.50756 4.294562,-5.36836 4.294562,-6.8036 0,-1.18378 -0.829434,-1.5634 -3.935117,-1.80107 -5.149363,-0.39402 -5.516439,-0.49202 -7.155,-1.91019 -0.856132,-0.74097 -2.718171,-1.80251 -4.137862,-2.35899 -1.654958,-0.64868 -3.132148,-1.53938 -4.116401,-2.48204 l -1.535148,-1.47027 0.244902,-2.61348 0.244902,-2.61345 -1.182222,-0.99681 c -4.022034,-3.39122 -7.658383,-2.23682 -8.557046,2.7165 -0.13105,0.72234 -0.496354,1.45774 -0.811787,1.63427 -1.468124,0.82162 -6.338013,-1.87734 -13.054289,-7.23487 -1.787077,-1.42554 -3.408429,-2.59189 -3.603007,-2.59189 -0.194575,0 -1.253095,2.81665 -2.352266,6.25919 -2.204791,6.90535 -2.913021,8.1122 -7.38494,12.58412 -3.63717,3.63717 -9.02467,6.53189 -12.18733,6.54833 l -1.61288,0.008 -3.42858,6.61458 c -3.417,6.59229 -5.5348,9.96597 -6.25601,9.96597 -0.20893,0 -1.35833,-0.93017 -2.55421,-2.06706 -4.70278,-4.47083 -6.86606,-5.30571 -8.34955,-3.22235 -1.09035,1.53127 -2.38265,4.88227 -3.16797,8.21468 -0.66318,2.81414 -0.74686,2.95508 -2.97633,5.01223 -1.89586,1.74936 -2.51037,2.61592 -3.54101,4.99364 -2.29761,5.30052 -5.47522,10.43136 -10.01626,16.17303 -1.3811,1.74625 -2.5135,3.46093 -2.51645,3.81035 -0.004,0.39653 0.46356,0.83132 1.242,1.15655 l 1.24737,0.52119 -1.46775,2.8212 c -2.28728,4.39646 -1.84242,4.21295 -11.9631,4.93434 -3.20146,0.22818 -6.08574,0.5551 -6.40952,0.72644 -0.32378,0.17135 -0.69315,0.78719 -0.82084,1.36853 -0.23677,1.07802 -1.65509,2.47668 -2.51147,2.47668 -1.33944,0 -3.42056,1.24597 -4.23439,2.53517 -0.47882,0.7585 -1.10353,1.46847 -1.38825,1.57772 -0.28472,0.10926 -1.51894,-0.4537 -2.74273,-1.25102 -2.97233,-1.93653 -5.15107,-2.65211 -7.3001,-2.39762 -2.17447,0.25757 -4.72299,1.5783 -6.51909,3.37849 -1.5199,1.52336 -3.04553,1.85451 -4.05695,0.88057 z"
       id="path915" />
    <text
       xml:space="preserve"
       style="font-size:99.08469999999999800px;line-height:1.25;font-family:sans-serif;stroke-width:0.619279;fill:#5266a3;fill-opacity:1;"
       x="-266.30542"
       y="-187.30408"
       id="text1017"><tspan
         sodipodi:role="line"
         id="tspan1015"
         x="-266.30542"
         y="-187.30408"
         style="font-style:normal;font-variant:normal;font-weight:bold;font-stretch:normal;font-family:Futura;-inkscape-font-specification:'Futura Bold';stroke-width:0.619279;fill:#5266a3;fill-opacity:1;">NEATO</tspan></text>
    <text
       xml:space="preserve"
       style="font-size:23.2372px;line-height:1.25;font-family:sans-serif;stroke-width:0.145233"
       x="-257.7789"
       y="-160.61679"
       id="text1021"><tspan
         sodipodi:role="line"
         id="tspan1019"
         x="-257.7789"
         y="-160.61679"
         style="font-style:normal;font-variant:normal;font-weight:500;font-stretch:condensed;font-family:Futura;-inkscape-font-specification:'Futura Medium Condensed';fill:#ffffff;stroke-width:0.145233">North Eastern Alliance of Trolley Organizations</tspan></text>
    <path
       style="fill:#5266a3;stroke-width:0.352778;fill-opacity:1"
       d="m -24.467432,232.58015 c -0.102965,-0.63687 -0.600188,-6.31729 -1.104935,-12.6232 -0.504747,-6.3059 -1.085293,-12.25903 -1.290101,-13.22917 -0.204809,-0.97013 -0.414398,-5.49451 -0.465759,-10.05416 -0.05136,-4.55966 -0.109096,-8.39431 -0.128305,-8.52149 -0.01923,-0.12714 -0.587491,-0.89256 -1.262849,-1.70092 -1.36791,-1.63728 -1.674079,-2.56536 -2.446659,-7.41648 -0.293553,-1.84327 -0.856865,-4.28904 -1.2518,-5.43511 -0.394935,-1.14603 -0.718065,-2.59542 -0.718065,-3.2209 0,-0.62543 0.727332,-3.18029 1.616297,-5.67739 1.122733,-3.1538 1.67821,-5.33837 1.819056,-7.15402 0.169302,-2.18249 0.353748,-2.76807 1.117731,-3.54841 0.503234,-0.51403 0.873831,-0.85771 0.823549,-0.76373 -0.05028,0.0939 0.267219,0.55242 0.705556,1.01879 0.659599,0.70181 0.7914,1.22322 0.764628,3.02478 -0.01778,1.19726 0.191276,5.13327 0.464594,8.74674 0.389453,5.14876 0.408281,7.05651 0.08704,8.81945 -0.541937,2.97409 -0.490784,5.27223 0.181914,8.17284 0.304383,1.31247 0.788144,4.16789 1.075019,6.34541 0.286879,2.17749 0.702529,4.50815 0.923664,5.17924 0.417929,1.26834 7.068189,13.87037 9.595172,18.18259 1.121615,1.91399 1.44114,2.81439 1.420558,4.00304 -0.0146,0.84345 -0.189367,1.6372 -0.388362,1.76389 -0.198995,0.12664 -1.046053,1.57966 -1.882355,3.2289 l -1.52055,2.99861 -0.02328,4.40972 -0.02328,4.40973 -3.950628,0.0996 -3.950631,0.0996 z M -232.63175,54.103985 c -4.97484,-0.626382 -7.97389,-1.615296 -13.84882,-4.566539 -6.05882,-3.043615 -16.30091,-8.996399 -17.35318,-10.085808 -0.59745,-0.618533 -0.58992,-0.723935 0.1766,-2.471703 1.59067,-3.626919 4.78739,-7.67932 7.43176,-9.421051 1.39919,-0.921579 1.46998,-1.05912 1.8914,-3.674815 0.54291,-3.369737 1.61543,-6.93685 2.54217,-8.455001 1.03423,-1.694251 3.17824,-3.002129 7.34201,-4.478747 4.5119,-1.6000731 6.26712,-2.6702563 6.53359,-3.9836339 0.37414,-1.8440401 1.16275,-4.5076571 2.09639,-7.08075489 0.67447,-1.85884621 1.03497,-3.78841721 1.28525,-6.87916701 0.2977,-3.6765512 1.0731,-8.1277602 1.93129,-11.0866312 0.1365,-0.470634 0.0772,-0.79375 -0.14575,-0.79375 -0.63656,0 -2.16896,-2.296873 -2.85858,-4.284642 -0.36044,-1.038934 -1.00605,-3.934471 -1.43469,-6.434526 -0.72984,-4.256814 -0.77138,-5.399684 -0.65384,-17.991667 l 0.12551,-13.446112 -0.94765,-2.021981 c -2.75619,-5.880827 -11.063,-6.169855 -23.6586,-0.823168 l -1.32292,0.561562 v -12.804741 -12.804743 l 28.44003,-14.028126 28.44002,-14.02813 2.31137,1.16355 c 2.79603,1.40753 4.38901,2.9145 6.69548,6.33397 4.92862,7.30693 5.53325,8.77053 4.94965,11.981398 -0.70081,3.855781 -4.20229,9.738382 -9.49532,15.952482 -7.37952,8.663644 -7.34416,8.586763 -6.66429,14.489293 0.54783,4.756182 0.33632,8.390524 -0.92492,15.892538 -1.7827,10.603745 -4.86947,22.154025 -6.66148,24.926333 -1.23618,1.91243 -3.17977,3.605442 -6.20486,5.404895 -3.30015,1.963071 -5.20817,2.66737 -7.22615,2.66737 -1.4699,0 -1.54324,0.0516 -1.88056,1.322917 -2.35602,8.8796783 -2.49961,12.7092294 -0.78203,20.8565762 1.48386,7.0387038 1.21625,8.4280558 -1.77872,9.2345158 -1.05085,0.282967 -2.14458,0.222272 -4.79467,-0.266068 -6.14067,-1.131563 -8.56661,-0.60839 -11.14461,2.403422 -1.44314,1.685982 -2.13084,3.537959 -2.80256,7.547251 l -0.47284,2.822222 3.90587,0.19909 c 3.35957,0.171242 4.49798,0.403709 8.13921,1.662053 3.14215,1.085867 4.86603,1.482323 6.68794,1.538079 l 2.45462,0.07512 1.97623,-3.071284 c 2.89886,-4.505134 3.8306,-5.370393 6.70472,-6.226344 4.40979,-1.313297 7.7801,-2.097356 9.98779,-2.32354 l 2.17481,-0.222814 v -1.691464 c 0,-2.440869 1.25393,-3.814628 6.91679,-7.5777868 2.62778,-1.7462501 5.87713,-3.992083 7.22078,-4.9907369 3.57404,-2.65638861 4.68331,-3.22756409 6.96017,-3.58387319 4.50206,-0.70453611 14.6174,1.10179914 20.79639,3.71368479 1.15159,0.486784 1.77846,0.504952 4.79749,0.1390544 4.3289,-0.5246546 5.90143,-0.9517309 6.79517,-1.8454723 0.93664,-0.93664272 0.62458,-1.85195294 -1.31317,-3.8517197 -3.1158,-3.2155238 -2.73849,-3.3791739 12.9333,-5.6094916 5.54047,-0.7884866 12.52547,-1.5947249 15.52222,-1.7916384 2.99675,-0.1969171 7.67114,-0.6048583 10.38753,-0.9065363 5.41925,-0.60186 5.82083,-0.800785 5.82083,-2.883334 0,-1.430952 -0.4288,-2.308144 -1.9722,-4.03453 -1.45349,-1.625797 -1.97687,-3.514982 -1.87179,-6.756329 0.0544,-1.677476 -0.13898,-3.234031 -0.57648,-4.640746 -0.36206,-1.164167 -0.68524,-2.161862 -0.71818,-2.217096 -0.033,-0.05523 -1.86678,0.656643 -4.0752,1.581954 -3.83121,1.605242 -4.16898,1.682634 -7.3667,1.687929 -3.0456,0.005 -3.56911,-0.09758 -5.73747,-1.124705 -1.31234,-0.62164 -2.48227,-1.380931 -2.59984,-1.687318 -0.30275,-0.788956 0.98245,-3.691848 2.94394,-6.649495 3.61095,-5.444815 9.0369,-9.697181 16.9746,-13.303169 10.18162,-4.625365 20.058378,-7.649539 30.431816,-9.317935 3.025302,-0.486572 7.946553,-1.589486 10.936112,-2.45092 7.255351,-2.09061 8.355732,-2.237768 9.573055,-1.280223 1.093224,0.859931 1.540101,2.590309 1.021335,3.954773 -0.28254,0.743133 -0.245001,0.979064 0.181839,1.142855 1.744119,0.669283 24.614129,-0.879408 25.45871,-1.72399 0.363774,-0.363773 -0.721832,-1.182024 -1.848717,-1.39343 -1.632663,-0.306288 -2.019488,-0.90927 -2.171425,-3.384807 -0.156232,-2.545528 -0.157099,-2.544943 4.63611,-3.13278 3.886691,-0.476663 6.673812,-0.494767 8.212928,-0.05335 l 1.170831,0.335788 19.862925,-18.348838 19.8629241,-18.348839 5.0694699,-2.9258 c 11.18277,-6.45402 30.046088,-18.14833 46.247864,-28.67135 3.82742,-2.4859 12.399921,-8.55919 19.050001,-13.49621 11.419862,-8.47809 12.512097,-9.3892 19.675779,-16.41253 12.780573,-12.53019 21.729523,-20.57897 34.748613,-31.25323 18.05104,-14.79993 37.24864,-32.09764 43.63145,-39.31341 3.34197,-3.7781 14.8965,-18.23067 22.4947,-28.13666 l 6.15393,-8.02306 h 10.24043 c 10.01462,0 10.22513,0.0145 9.54469,0.65943 -0.38266,0.36268 -19.52089,17.72448 -42.52938,38.58177 -37.25644,33.77313 -44.34335,40.02806 -64.77201,57.16775 -15.11367,12.68044 -25.81381,21.36322 -31.367775,25.45387 -4.636152,3.41466 -10.969371,8.08002 -14.073816,10.36747 -11.294146,8.32185 -19.253578,13.72804 -29.103875,19.76786 -13.588154,8.33173 -21.205809,12.92947 -24.165572,14.58546 -1.358195,0.75991 -2.786945,1.66459 -3.175,2.0104 -0.388056,0.34581 -1.975556,1.38076 -3.527778,2.29989 -2.2916059,1.35694 -4.4140724,3.256647 -11.28888967,10.104072 -6.88846623,6.861016 -10.47229713,10.067643 -19.22639033,17.202782 -6.617794,5.39392 -10.708072,8.960771 -10.62555,9.265808 0.07379,0.272774 0.284875,1.169638 0.469067,1.993032 0.184192,0.823394 1.108604,2.682282 2.054246,4.130862 0.945646,1.44858 1.97091,3.120246 2.278373,3.714807 0.670243,1.296105 0.753379,4.120282 0.199789,6.786912 -0.342618,1.650386 -0.313997,2.17195 0.188048,3.426686 0.669142,1.672346 0.554973,1.869916 -1.44314,2.497388 -2.265623,0.711479 -3.709747,1.569328 -6.526389,3.876859 -8.007287,6.559956 -8.901928,7.006611 -14.95278,7.465247 -2.544515,0.192867 -7.722013,0.374534 -11.505555,0.403705 l -6.879167,0.05304 -3.527778,-1.648156 c -2.658667,-1.242117 -4.251184,-1.745139 -6.464141,-2.041801 -1.614999,-0.216506 -5.58375,-0.939652 -8.819445,-1.606998 -8.635376,-1.780995 -12.262447,-1.629329 -22.432292,0.938005 -4.86758,1.228795 -10.82934,3.078402 -11.27406,3.497717 -0.17159,0.161788 0.0226,1.263887 0.44097,2.502786 0.53353,1.57987 0.74758,3.088086 0.74758,5.267558 0,2.977177 0.46876,5.27581 1.07589,5.27581 0.16573,0 0.80999,0.739316 1.43169,1.642928 0.87689,1.274512 1.128,2.006265 1.11985,3.263195 -0.0205,3.152913 -0.36441,4.615928 -1.5482,6.5852289 -1.66951,2.7773244 -6.5399,7.86920268 -10.70606,11.192941 -4.0527,3.2332121 -16.80322,11.7836391 -24.00512,16.0976921 -10.34238,6.195258 -15.93206,8.818866 -39.51111,18.545225 -5.04473,2.080948 -13.53785,5.902156 -18.87361,8.491577 -5.33577,2.589421 -11.13014,5.179713 -12.87639,5.756205 -2.75539,0.909637 -7.85184,1.893263 -9.10956,1.758163 -0.22849,-0.02454 -1.52669,-0.184542 -2.88489,-0.355554 z m 72.45384,-144.208748 c -1.70395,-0.238978 -2.84981,-0.965553 -6.37535,-4.042495 -1.62444,-1.417743 -2.05344,-2.023374 -2.24769,-3.17312 -0.341,-2.018375 -1.80892,-3.397692 -3.61597,-3.397692 -1.86599,0 -2.86204,0.877564 -3.39976,2.995364 -0.24179,0.952239 -0.59776,1.784057 -0.79105,1.848488 -0.49288,0.164292 -2.35211,-3.447577 -3.43338,-6.669942 -1.00803,-3.00408 -1.10422,-4.41674 -0.49993,-7.34241 0.22482,-1.08846 0.30232,-2.40312 0.17222,-2.92147 -0.57622,-2.29586 -3.22047,-1.8758 -3.91473,0.62189 -0.41403,1.48954 -0.99795,1.81919 -2.53781,1.43271 -0.9653,-0.24228 -2.22115,-2.53884 -2.23458,-4.08637 -0.004,-0.49091 -0.80125,-2.94611 -1.77109,-5.456 -1.39011,-3.59753 -1.67012,-4.64772 -1.32292,-4.96164 0.55346,-0.50041 14.91928,-8.53515 20.46962,-11.44858 2.32062,-1.21811 4.3908,-2.08978 4.69024,-1.97487 0.29482,0.11313 0.77984,0.80324 1.07782,1.53357 2.26731,5.55699 4.00565,8.53515 6.73091,11.53146 4.2225,4.64249 6.05344,7.96245 6.08552,11.03468 0.0205,1.96356 -0.55941,3.1415 -1.97835,4.01845 -1.45325,0.89816 -1.98635,2.64955 -1.6729,5.49596 0.33396,3.0327 1.00875,4.17853 3.51328,5.965721 3.11816,2.225076 4.38679,3.757109 4.38679,5.297629 0,1.758926 -0.54314,2.570759 -2.23333,3.338164 -1.53245,0.69579 -5.56701,0.855662 -9.09756,0.360503 z"
       id="path917" />
    <path
       sodipodi:type="star"
       style="fill:#be3526;fill-opacity:1;stroke:#000000;stroke-width:0.751361;stroke-linecap:round;stroke-linejoin:round;paint-order:stroke fill markers"
       id="path983"
       sodipodi:sides="5"
       sodipodi:cx="-135.4177"
       sodipodi:cy="-77.516236"
       sodipodi:r1="9.3362932"
       sodipodi:r2="4.3150177"
       sodipodi:arg1="0.9151007"
       sodipodi:arg2="1.4813661"
       inkscape:flatsided="false"
       inkscape:rounded="0"
       inkscape:randomized="0"
       d="m -129.72526,-70.116065 -5.30706,-3.102396 -5.66429,3.402835 1.31058,-6.006007 -4.98665,-4.335534 6.11704,-0.609521 2.58238,-6.082342 2.46996,5.629302 6.58265,0.57644 -4.59053,4.088621 z"
       inkscape:transform-center-x="0.023901833"
       inkscape:transform-center-y="-0.022288297" />
    <path
       sodipodi:type="star"
       style="fill:#be3526;fill-opacity:1;stroke:#000000;stroke-width:0.751361;stroke-linecap:round;stroke-linejoin:round;paint-order:stroke fill markers"
       id="path985"
       sodipodi:sides="5"
       sodipodi:cx="-6.0592428"
       sodipodi:cy="-129.90106"
       sodipodi:r1="9.3362932"
       sodipodi:r2="4.3150177"
       sodipodi:arg1="0.9151007"
       sodipodi:arg2="1.4813661"
       inkscape:flatsided="false"
       inkscape:rounded="0"
       inkscape:randomized="0"
       d="m -0.36680428,-122.50089 -5.30705962,-3.1024 -5.6642981,3.40284 1.310582,-6.00601 -4.986653,-4.33553 6.1170441,-0.60952 2.5823775,-6.08235 2.4699588,5.62931 6.58265,0.57644 -4.5905256,4.08862 z"
       inkscape:transform-center-x="0.023901833"
       inkscape:transform-center-y="-0.022288297" />
    <path
       sodipodi:type="star"
       style="fill:#be3526;fill-opacity:1;stroke:#000000;stroke-width:0.751361;stroke-linecap:round;stroke-linejoin:round;paint-order:stroke fill markers"
       id="path987"
       sodipodi:sides="5"
       sodipodi:cx="68.241686"
       sodipodi:cy="-132.57376"
       sodipodi:r1="9.3362932"
       sodipodi:r2="4.3150177"
       sodipodi:arg1="0.9151007"
       sodipodi:arg2="1.4813661"
       inkscape:flatsided="false"
       inkscape:rounded="0"
       inkscape:randomized="0"
       d="m 73.934122,-125.17359 -5.307059,-3.1024 -5.664299,3.40284 1.310583,-6.00601 -4.986653,-4.33553 6.117044,-0.60952 2.582377,-6.08235 2.469959,5.62931 6.58265,0.57644 -4.590526,4.08862 z"
       inkscape:transform-center-x="0.023901833"
       inkscape:transform-center-y="-0.022288297" />
    <path
       sodipodi:type="star"
       style="fill:#be3526;fill-opacity:1;stroke:#000000;stroke-width:0.751361;stroke-linecap:round;stroke-linejoin:round;paint-order:stroke fill markers"
       id="path989"
       sodipodi:sides="5"
       sodipodi:cx="171.94226"
       sodipodi:cy="-44.909356"
       sodipodi:r1="9.3362932"
       sodipodi:r2="4.3150177"
       sodipodi:arg1="0.9151007"
       sodipodi:arg2="1.4813661"
       inkscape:flatsided="false"
       inkscape:rounded="0"
       inkscape:randomized="0"
       d="m 177.6347,-37.509185 -5.30706,-3.102396 -5.6643,3.402835 1.31058,-6.006007 -4.98665,-4.335534 6.11704,-0.60952 2.58238,-6.082343 2.46996,5.629303 6.58265,0.576439 -4.59052,4.088621 z"
       inkscape:transform-center-x="0.023901833"
       inkscape:transform-center-y="-0.022288297" />
    <path
       sodipodi:type="star"
       style="fill:#be3526;fill-opacity:1;stroke:#000000;stroke-width:0.751361;stroke-linecap:round;stroke-linejoin:round;paint-order:stroke fill markers"
       id="path991"
       sodipodi:sides="5"
       sodipodi:cx="101.91764"
       sodipodi:cy="35.806042"
       sodipodi:r1="9.3362932"
       sodipodi:r2="4.3150177"
       sodipodi:arg1="0.9151007"
       sodipodi:arg2="1.4813661"
       inkscape:flatsided="false"
       inkscape:rounded="0"
       inkscape:randomized="0"
       d="m 107.61008,43.206212 -5.30706,-3.102396 -5.664299,3.402835 1.310582,-6.006007 -4.986653,-4.335534 6.117045,-0.60952 2.582375,-6.082343 2.46996,5.629303 6.58265,0.576439 -4.59052,4.088621 z"
       inkscape:transform-center-x="0.023901833"
       inkscape:transform-center-y="-0.022288297" />
    <path
       sodipodi:type="star"
       style="fill:#be3526;fill-opacity:1;stroke:#000000;stroke-width:0.751361;stroke-linecap:round;stroke-linejoin:round;paint-order:stroke fill markers"
       id="path993"
       sodipodi:sides="5"
       sodipodi:cx="87.641647"
       sodipodi:cy="62.284717"
       sodipodi:r1="9.3362932"
       sodipodi:r2="4.3150177"
       sodipodi:arg1="0.9151007"
       sodipodi:arg2="1.4813661"
       inkscape:flatsided="false"
       inkscape:rounded="0"
       inkscape:randomized="0"
       d="m 93.334086,69.684888 -5.30706,-3.102396 -5.664298,3.402835 1.310582,-6.006007 -4.986653,-4.335534 6.117044,-0.609521 2.582378,-6.082342 2.469958,5.629302 6.58265,0.57644 -4.590525,4.088621 z"
       inkscape:transform-center-x="0.023901833"
       inkscape:transform-center-y="-0.022288297" />
    <path
       sodipodi:type="star"
       style="fill:#be3526;fill-opacity:1;stroke:#000000;stroke-width:0.751361;stroke-linecap:round;stroke-linejoin:round;paint-order:stroke fill markers"
       id="path995"
       sodipodi:sides="5"
       sodipodi:cx="54.878201"
       sodipodi:cy="12.124004"
       sodipodi:r1="9.3362932"
       sodipodi:r2="4.3150177"
       sodipodi:arg1="0.9151007"
       sodipodi:arg2="1.4813661"
       inkscape:flatsided="false"
       inkscape:rounded="0"
       inkscape:randomized="0"
       d="m 60.570639,19.524174 -5.30706,-3.102396 -5.664298,3.402835 1.310582,-6.006006 -4.986653,-4.3355345 6.117044,-0.6095203 2.582378,-6.0823425 2.469959,5.6293025 6.58265,0.5764398 -4.590526,4.08862 z"
       inkscape:transform-center-x="0.023901833"
       inkscape:transform-center-y="-0.022288297" />
    <path
       sodipodi:type="star"
       style="fill:#be3526;fill-opacity:1;stroke:#000000;stroke-width:0.751361;stroke-linecap:round;stroke-linejoin:round;paint-order:stroke fill markers"
       id="path997"
       sodipodi:sides="5"
       sodipodi:cx="-30.444279"
       sodipodi:cy="60.940503"
       sodipodi:r1="9.3362932"
       sodipodi:r2="4.3150177"
       sodipodi:arg1="0.9151007"
       sodipodi:arg2="1.4813661"
       inkscape:flatsided="false"
       inkscape:rounded="0"
       inkscape:randomized="0"
       d="m -24.75184,68.340672 -5.30706,-3.102396 -5.664298,3.402835 1.310582,-6.006007 -4.986653,-4.335534 6.117044,-0.60952 2.582378,-6.082342 2.469958,5.629302 6.58265,0.57644 -4.590525,4.08862 z"
       inkscape:transform-center-x="0.023901833"
       inkscape:transform-center-y="-0.022288297" />
    <path
       sodipodi:type="star"
       style="fill:#be3526;fill-opacity:1;stroke:#000000;stroke-width:0.751361;stroke-linecap:round;stroke-linejoin:round;paint-order:stroke fill markers"
       id="path999"
       sodipodi:sides="5"
       sodipodi:cx="-66.996704"
       sodipodi:cy="-13.371552"
       sodipodi:r1="9.3362932"
       sodipodi:r2="4.3150177"
       sodipodi:arg1="0.9151007"
       sodipodi:arg2="1.4813661"
       inkscape:flatsided="false"
       inkscape:rounded="0"
       inkscape:randomized="0"
       d="m -61.304266,-5.9713825 -5.307059,-3.102396 -5.664299,3.402835 1.310583,-6.0060065 -4.986653,-4.335534 6.117044,-0.609521 2.582377,-6.082342 2.469959,5.629302 6.58265,0.57644 -4.590526,4.088621 z"
       inkscape:transform-center-x="0.023901833"
       inkscape:transform-center-y="-0.022288297" />
    <path
       sodipodi:type="star"
       style="fill:#be3526;fill-opacity:1;stroke:#000000;stroke-width:0.751361;stroke-linecap:round;stroke-linejoin:round;paint-order:stroke fill markers"
       id="path1001"
       sodipodi:sides="5"
       sodipodi:cx="6.7696851"
       sodipodi:cy="117.05598"
       sodipodi:r1="9.3362932"
       sodipodi:r2="4.3150177"
       sodipodi:arg1="0.9151007"
       sodipodi:arg2="1.4813661"
       inkscape:flatsided="false"
       inkscape:rounded="0"
       inkscape:randomized="0"
       d="m 12.462124,124.45615 -5.3070599,-3.1024 -5.6642985,3.40284 1.3105824,-6.00601 -4.9866529,-4.33554 6.117044,-0.60952 2.5823775,-6.08234 2.4699588,5.6293 6.5826496,0.57644 -4.590525,4.08863 z"
       inkscape:transform-center-x="0.023901833"
       inkscape:transform-center-y="-0.022288297" />
    <path
       sodipodi:type="star"
       style="fill:#be3526;fill-opacity:1;stroke:#000000;stroke-width:0.751361;stroke-linecap:round;stroke-linejoin:round;paint-order:stroke fill markers"
       id="path1003"
       sodipodi:sides="5"
       sodipodi:cx="-30.648049"
       sodipodi:cy="146.99016"
       sodipodi:r1="9.3362932"
       sodipodi:r2="4.3150177"
       sodipodi:arg1="0.9151007"
       sodipodi:arg2="1.4813661"
       inkscape:flatsided="false"
       inkscape:rounded="0"
       inkscape:randomized="0"
       d="m -24.95561,154.39033 -5.30706,-3.1024 -5.664298,3.40284 1.310582,-6.00601 -4.986653,-4.33553 6.117044,-0.60952 2.582378,-6.08235 2.469959,5.62931 6.58265,0.57644 -4.590526,4.08862 z"
       inkscape:transform-center-x="0.023901833"
       inkscape:transform-center-y="-0.022288297" />
    <path
       sodipodi:type="star"
       style="fill:#be3526;fill-opacity:1;stroke:#000000;stroke-width:0.751361;stroke-linecap:round;stroke-linejoin:round;paint-order:stroke fill markers"
       id="path1005"
       sodipodi:sides="5"
       sodipodi:cx="-56.840462"
       sodipodi:cy="148.05924"
       sodipodi:r1="9.3362932"
       sodipodi:r2="4.3150177"
       sodipodi:arg1="0.9151007"
       sodipodi:arg2="1.4813661"
       inkscape:flatsided="false"
       inkscape:rounded="0"
       inkscape:randomized="0"
       d="m -51.148023,155.4594 -5.30706,-3.10239 -5.664298,3.40283 1.310582,-6.006 -4.986653,-4.33554 6.117044,-0.60952 2.582378,-6.08234 2.469958,5.6293 6.58265,0.57644 -4.590525,4.08862 z"
       inkscape:transform-center-x="0.023901833"
       inkscape:transform-center-y="-0.022288297" />
    <path
       sodipodi:type="star"
       style="fill:#be3526;fill-opacity:1;stroke:#000000;stroke-width:0.751361;stroke-linecap:round;stroke-linejoin:round;paint-order:stroke fill markers"
       id="path1007"
       sodipodi:sides="5"
       sodipodi:cx="-76.08387"
       sodipodi:cy="113.84874"
       sodipodi:r1="9.3362932"
       sodipodi:r2="4.3150177"
       sodipodi:arg1="0.9151007"
       sodipodi:arg2="1.4813661"
       inkscape:flatsided="false"
       inkscape:rounded="0"
       inkscape:randomized="0"
       d="m -70.391431,121.24891 -5.30706,-3.1024 -5.664299,3.40284 1.310583,-6.00601 -4.986653,-4.33553 6.117044,-0.60952 2.582377,-6.08235 2.469959,5.62931 6.58265,0.57644 -4.590525,4.08862 z"
       inkscape:transform-center-x="0.023901833"
       inkscape:transform-center-y="-0.022288297" />
    <path
       sodipodi:type="star"
       style="fill:#be3526;fill-opacity:1;stroke:#000000;stroke-width:0.751361;stroke-linecap:round;stroke-linejoin:round;paint-order:stroke fill markers"
       id="path1009"
       sodipodi:sides="5"
       sodipodi:cx="-153.59203"
       sodipodi:cy="110.10696"
       sodipodi:r1="9.3362932"
       sodipodi:r2="4.3150177"
       sodipodi:arg1="0.9151007"
       sodipodi:arg2="1.4813661"
       inkscape:flatsided="false"
       inkscape:rounded="0"
       inkscape:randomized="0"
       d="m -147.89959,117.50713 -5.30706,-3.1024 -5.6643,3.40284 1.31059,-6.00601 -4.98666,-4.33554 6.11705,-0.60952 2.58238,-6.08234 2.46995,5.6293 6.58265,0.57644 -4.59052,4.08862 z"
       inkscape:transform-center-x="0.023901833"
       inkscape:transform-center-y="-0.022288297" />
    <path
       sodipodi:type="star"
       style="fill:#be3526;fill-opacity:1;stroke:#000000;stroke-width:0.751361;stroke-linecap:round;stroke-linejoin:round;paint-order:stroke fill markers"
       id="path1011"
       sodipodi:sides="5"
       sodipodi:cx="-250.22501"
       sodipodi:cy="85.533895"
       sodipodi:r1="9.3362932"
       sodipodi:r2="4.3150177"
       sodipodi:arg1="0.9151007"
       sodipodi:arg2="1.4813661"
       inkscape:flatsided="false"
       inkscape:rounded="0"
       inkscape:randomized="0"
       d="m -244.53257,92.934067 -5.30706,-3.102396 -5.6643,3.402835 1.31059,-6.006006 -4.98666,-4.335535 6.11705,-0.60952 2.58238,-6.082342 2.46995,5.629302 6.58265,0.57644 -4.59052,4.088621 z"
       inkscape:transform-center-x="0.023901833"
       inkscape:transform-center-y="-0.022288297" />
    <path
       style="fill:none;stroke:#ffffff;stroke-width:2.00000006;stroke-linecap:butt;stroke-linejoin:bevel;stroke-opacity:1;stroke-miterlimit:4;stroke-dasharray:4.00000011, 2.00000006000000008;stroke-dashoffset:0"
       d="m 20.813873,-107.69804 114.526797,0.37798 3.40178,-8.31548 5.66965,-6.04762 h 4.91368 l 3.02382,-4.15773 4.15774,3.40178 7.18153,-5.29166 -0.37796,-4.15774 10.20535,-12.47322 6.42559,-3.77976 v -5.66964 l -4.15774,-10.96131 2.26785,-7.9375 4.53573,-3.02381 1.13392,-7.18155 29.10417,-44.97916 3.4018,0.75595 -0.37798,8.69345 5.66965,2.26786 20.03271,-3.77976 7.18156,9.82738"
       id="path1013" />
    <text
       xml:space="preserve"
       style="font-size:16.445px;line-height:1.25;font-family:sans-serif;stroke-width:0.102781"
       x="77.903572"
       y="-126.15479"
       id="text1025"><tspan
         sodipodi:role="line"
         id="tspan1023"
         x="77.903572"
         y="-126.15479"
         style="font-style:normal;font-variant:normal;font-weight:800;font-stretch:condensed;font-family:Futura;-inkscape-font-specification:'Futura Ultra-Bold Condensed';stroke-width:0.102781">Exporail</tspan></text>
    <text
       xml:space="preserve"
       style="font-size:16.445px;line-height:1.25;font-family:sans-serif;stroke-width:0.102781"
       x="94.488106"
       y="-38.216042"
       id="text1029"><tspan
         sodipodi:role="line"
         id="tspan1027"
         x="94.488106"
         y="-38.216042"
         style="font-style:normal;font-variant:normal;font-weight:800;font-stretch:condensed;font-family:Futura;-inkscape-font-specification:'Futura Ultra-Bold Condensed';stroke-width:0.102781">Seashore</tspan></text>
    <text
       xml:space="preserve"
       style="font-size:16.445px;line-height:1.25;font-family:sans-serif;stroke-width:0.102781"
       x="-58.103012"
       y="-7.8482447"
       id="text1033"><tspan
         sodipodi:role="line"
         id="tspan1031"
         x="-58.103012"
         y="-7.8482447"
         style="font-style:normal;font-variant:normal;font-weight:800;font-stretch:condensed;font-family:Futura;-inkscape-font-specification:'Futura Ultra-Bold Condensed';stroke-width:0.102781">NY Museum of Transportation</tspan></text>
    <text
       xml:space="preserve"
       style="font-size:16.445px;line-height:1.25;font-family:sans-serif;stroke-width:0.102781"
       x="-116.9422"
       y="19.436264"
       id="text1037"><tspan
         sodipodi:role="line"
         id="tspan1035"
         x="-116.9422"
         y="19.436264"
         style="font-style:normal;font-variant:normal;font-weight:800;font-stretch:condensed;font-family:Futura;-inkscape-font-specification:'Futura Ultra-Bold Condensed';stroke-width:0.102781">Trolley Museum of NY</tspan></text>
    <text
       xml:space="preserve"
       style="font-size:16.445px;line-height:1.25;font-family:sans-serif;stroke-width:0.102781"
       x="9.5194397"
       y="42.644005"
       id="text1041"><tspan
         sodipodi:role="line"
         id="tspan1039"
         x="9.5194397"
         y="42.644005"
         style="font-style:normal;font-variant:normal;font-weight:800;font-stretch:condensed;font-family:Futura;-inkscape-font-specification:'Futura Ultra-Bold Condensed';stroke-width:0.102781">Connecticut</tspan></text>
    <text
       xml:space="preserve"
       style="font-size:16.445px;line-height:1.25;font-family:sans-serif;stroke-width:0.102781"
       x="3.7350397"
       y="68.189812"
       id="text1045"><tspan
         sodipodi:role="line"
         id="tspan1043"
         x="3.7350397"
         y="68.189812"
         style="font-style:normal;font-variant:normal;font-weight:800;font-stretch:condensed;font-family:Futura;-inkscape-font-specification:'Futura Ultra-Bold Condensed';stroke-width:0.102781">Shore Line</tspan></text>
    <text
       xml:space="preserve"
       style="font-size:16.445px;line-height:1.25;font-family:sans-serif;stroke-width:0.102781"
       x="-123.59303"
       y="66.364784"
       id="text1049"><tspan
         sodipodi:role="line"
         id="tspan1047"
         x="-123.59303"
         y="66.364784"
         style="font-style:normal;font-variant:normal;font-weight:800;font-stretch:condensed;font-family:Futura;-inkscape-font-specification:'Futura Ultra-Bold Condensed';stroke-width:0.102781">Electric City</tspan></text>
    <text
       xml:space="preserve"
       style="font-size:16.445px;line-height:1.25;font-family:sans-serif;stroke-width:0.102781"
       x="-242.5554"
       y="95.717224"
       id="text1053"><tspan
         sodipodi:role="line"
         id="tspan1051"
         x="-242.5554"
         y="95.717224"
         style="font-style:normal;font-variant:normal;font-weight:800;font-stretch:condensed;font-family:Futura;-inkscape-font-specification:'Futura Ultra-Bold Condensed';stroke-width:0.102781">Northern Ohio</tspan></text>
    <text
       xml:space="preserve"
       style="font-size:16.445px;line-height:1.25;font-family:sans-serif;stroke-width:0.102781"
       x="-258.0524"
       y="119.15174"
       id="text1057"><tspan
         sodipodi:role="line"
         id="tspan1055"
         x="-258.0524"
         y="119.15174"
         style="font-style:normal;font-variant:normal;font-weight:800;font-stretch:condensed;font-family:Futura;-inkscape-font-specification:'Futura Ultra-Bold Condensed';stroke-width:0.102781">Pennsylvania</tspan></text>
    <text
       xml:space="preserve"
       style="font-size:16.445px;line-height:1.25;font-family:sans-serif;stroke-width:0.102781"
       x="-141.30035"
       y="121.13333"
       id="text1061"><tspan
         sodipodi:role="line"
         id="tspan1059"
         x="-141.30035"
         y="121.13333"
         style="font-style:normal;font-variant:normal;font-weight:800;font-stretch:condensed;font-family:Futura;-inkscape-font-specification:'Futura Ultra-Bold Condensed';stroke-width:0.102781">Rockhill</tspan></text>
    <text
       xml:space="preserve"
       style="font-size:16.445px;line-height:1.25;font-family:sans-serif;stroke-width:0.102781"
       x="-184.02008"
       y="154.74634"
       id="text1065"><tspan
         sodipodi:role="line"
         id="tspan1063"
         x="-184.02008"
         y="154.74634"
         style="font-style:normal;font-variant:normal;font-weight:800;font-stretch:condensed;font-family:Futura;-inkscape-font-specification:'Futura Ultra-Bold Condensed';stroke-width:0.102781">National Capitol</tspan></text>
    <text
       xml:space="preserve"
       style="font-size:16.445px;line-height:1.25;font-family:sans-serif;stroke-width:0.102781"
       x="-22.573229"
       y="156.94934"
       id="text1069"><tspan
         sodipodi:role="line"
         id="tspan1067"
         x="-22.573229"
         y="156.94934"
         style="font-style:normal;font-variant:normal;font-weight:800;font-stretch:condensed;font-family:Futura;-inkscape-font-specification:'Futura Ultra-Bold Condensed';stroke-width:0.102781">Baltimore Streetcar Museum</tspan></text>
    <text
       xml:space="preserve"
       style="font-size:16.445px;line-height:1.25;font-family:sans-serif;stroke-width:0.102781"
       x="16.682571"
       y="123.94685"
       id="text1073"><tspan
         sodipodi:role="line"
         id="tspan1071"
         x="16.682571"
         y="123.94685"
         style="font-style:normal;font-variant:normal;font-weight:800;font-stretch:condensed;font-family:Futura;-inkscape-font-specification:'Futura Ultra-Bold Condensed';stroke-width:0.102781">Friends of Philadelphia Trolleys</tspan></text>
    <text
       xml:space="preserve"
       style="font-size:16.445px;line-height:1.25;font-family:sans-serif;stroke-width:0.102781"
       x="-68.819519"
       y="-124.7346"
       id="text1077"><tspan
         sodipodi:role="line"
         id="tspan1075"
         x="-68.819519"
         y="-124.7346"
         style="font-style:normal;font-variant:normal;font-weight:800;font-stretch:condensed;font-family:Futura;-inkscape-font-specification:'Futura Ultra-Bold Condensed';stroke-width:0.102781">Ottawa</tspan></text>
    <text
       xml:space="preserve"
       style="font-size:16.445px;line-height:1.25;font-family:sans-serif;stroke-width:0.102781"
       x="-125.22124"
       y="-71.944939"
       id="text1081"><tspan
         sodipodi:role="line"
         id="tspan1079"
         x="-125.22124"
         y="-71.944939"
         style="font-style:normal;font-variant:normal;font-weight:800;font-stretch:condensed;font-family:Futura;-inkscape-font-specification:'Futura Ultra-Bold Condensed';stroke-width:0.102781">Halton County</tspan></text>
  </g>
</svg>
